<svg width="36" height="48" viewBox="0 0 36 48" fill="none" xmlns="http://www.w3.org/2000/svg">
<path d="M21 12.75V0H2.25C1.00312 0 0 1.00312 0 2.25V45.75C0 46.9969 1.00312 48 2.25 48H33.75C34.9969 48 36 46.9969 36 45.75V15H23.25C22.0125 15 21 13.9875 21 12.75ZM28.1672 32.565L19.1278 41.5369C18.5044 42.1566 17.4975 42.1566 16.8741 41.5369L7.83469 32.565C6.88312 31.6209 7.55062 30 8.88937 30H15V22.5C15 21.6712 15.6713 21 16.5 21H19.5C20.3288 21 21 21.6712 21 22.5V30H27.1106C28.4494 30 29.1169 31.6209 28.1672 32.565ZM35.3438 9.84375L26.1656 0.65625C25.7438 0.234375 25.1719 0 24.5719 0H24V12H36V11.4281C36 10.8375 35.7656 10.2656 35.3438 9.84375Z" fill="black" fill-opacity="0.2"/>
</svg>
